<?xml version="1.0" encoding="UTF-8" standalone="no"?>
<svg width="87px" height="52px" viewBox="0 0 87 52" version="1.1" xmlns="http://www.w3.org/2000/svg" xmlns:xlink="http://www.w3.org/1999/xlink" xmlns:sketch="../../www.bohemiancoding.com/sketch/ns">
    <!-- Generator: Sketch 3.3.2 (12043) - http://www.bohemiancoding.com/sketch -->
    <title>Imported Layers</title>
    <desc>Created with Sketch.</desc>
    <defs></defs>
    <g id="Page-1" stroke="none" stroke-width="1" fill="none" fill-rule="evenodd" sketch:type="MSPage">
        <g id="Desktop" sketch:type="MSArtboardGroup" transform="translate(-680.000000, -774.000000)" fill="#21DAE5">
            <path d="M719.830393,756.991374 L720.583829,756.991374 C722.492407,757.172324 724.397846,757.447077 726.310443,757.511747 C728.983507,757.602034 731.66486,757.615721 734.33692,757.511621 C736.61531,757.422967 738.447289,758.267569 740.060897,759.751963 C742.202789,761.722072 743.599283,764.189072 744.653716,766.856737 C747.259474,773.4493 748.202147,780.395601 748.914772,787.382085 C749.162652,789.813046 749.335566,792.254052 749.459255,794.694682 C749.616723,797.801977 749.694452,800.91329 749.795287,804.023347 C749.81902,804.758198 749.557578,805.416701 748.932227,805.807106 C748.325711,806.185708 748.236052,806.713866 748.191097,807.340097 C748.04154,809.423096 747.883821,811.506095 747.682779,813.584447 C747.310707,817.431114 746.680458,821.237471 745.790399,824.998623 C744.898331,828.76869 743.768806,832.457134 741.873161,835.863543 C740.785074,837.819086 739.470203,839.595436 737.576694,840.860957 C736.593962,841.517828 735.540408,842.036819 734.334911,842.086421 C730.888067,842.228066 727.43909,842.320362 723.993251,842.482602 C722.936557,842.532329 721.887524,842.744923 720.834974,842.882928 L720.207111,842.882928 C719.341539,842.771294 718.46906,842.69708 717.611524,842.541621 C712.672627,841.645912 708.895779,838.986786 706.09237,834.878803 C704.367002,832.350398 703.362421,829.507182 702.362612,826.63609 C699.743669,819.115168 698.524485,811.349505 698.171751,803.437802 C697.923871,797.879078 698.113109,792.324624 698.876213,786.797545 C699.494031,782.322513 700.4082,777.921067 701.906532,773.653606 C703.321736,769.623478 705.157984,765.818502 708.015766,762.584881 C710.426761,759.85669 713.349966,757.982519 716.983912,757.351391 C717.925205,757.187895 718.881189,757.109036 719.830393,756.991374 L719.830393,756.991374 Z M730.039699,766.826474 C729.959583,766.850584 729.905462,766.84983 729.884742,766.875824 C729.7549,767.039319 729.627193,767.205075 729.508275,767.376607 C727.003604,770.990588 725.10708,774.908077 723.69263,779.063652 C721.403692,785.788569 720.448587,792.733112 720.352649,799.808251 C720.284087,804.872846 720.68617,809.904792 721.523489,814.904341 C722.294002,819.50482 723.370788,824.021416 725.085105,828.367359 C725.891156,830.410803 726.788749,832.416826 728.269125,834.088825 C728.748687,834.63042 728.997823,834.655283 729.38107,834.041108 C729.875073,833.249623 730.342454,832.415696 730.654377,831.54058 C733.469464,823.645452 734.975833,815.508597 734.887807,807.116829 C734.846745,803.21039 734.655121,799.303072 734.427081,795.402158 C734.262581,792.590587 734.020226,789.776128 733.640368,786.986406 C733.181903,783.620181 732.544496,780.278191 731.978163,776.926657 C731.771848,775.705714 731.471227,774.480753 732.545501,773.461983 C732.642443,773.370063 732.640057,773.108119 732.599497,772.946381 C732.088667,770.910347 731.303713,768.981802 730.279542,767.150325 C730.212361,767.030027 730.114917,766.926681 730.039699,766.826474 L730.039699,766.826474 Z" id="Imported-Layers" sketch:type="MSShapeGroup" transform="translate(724.000000, 800.000000) rotate(-90.000000) translate(-724.000000, -800.000000) "></path>
        </g>
    </g>
</svg>