<?xml version="1.0" encoding="UTF-8" standalone="no"?>
<svg width="255px" height="40px" viewBox="0 0 255 40" version="1.1" xmlns="http://www.w3.org/2000/svg" xmlns:xlink="http://www.w3.org/1999/xlink" xmlns:sketch="../../../www.bohemiancoding.com/sketch/ns">
    <!-- Generator: Sketch 3.3.2 (12043) - http://www.bohemiancoding.com/sketch -->
    <title>Logo</title>
    <desc>Created with Sketch.</desc>
    <defs></defs>
    <g id="Page-1" stroke="none" stroke-width="1" fill="none" fill-rule="evenodd" sketch:type="MSPage">
        <g id="Desktop" sketch:type="MSArtboardGroup" transform="translate(-167.000000, -46.000000)" fill="#46D8F1">
            <g id="Logo" sketch:type="MSLayerGroup" transform="translate(167.000000, 46.000000)">
                <path d="M1.46504717,22.4631325 C3.80767925,20.9951807 6.06274528,19.5826506 8.4794717,18.0684337 C11.435066,22.8028916 14.3266698,27.4356627 17.3130566,32.219759 C21.8073113,29.4168675 26.151934,26.7074699 30.6832358,23.8809639 C27.7261981,19.1127711 24.8519151,14.48 21.8886226,9.7026506 C24.2336604,8.24 26.4560094,6.85349398 28.7870943,5.39951807 C29.1671887,5.90795181 29.5116792,6.30361446 29.7859245,6.74409639 C32.4701604,11.0583133 35.2159811,15.3363855 37.7948491,19.713253 C39.7545,23.0390361 39.1367264,25.9074699 35.9376792,27.9850602 C30.3170943,31.6346988 24.6310755,35.1889157 18.8853962,38.6371084 C15.7315755,40.5301205 12.3646132,39.7257831 10.3534811,36.6506024 C7.35362264,32.0645783 4.52456604,27.3662651 1.46504717,22.4631325" id="Fill-1" sketch:type="MSShapeGroup"></path>
                <path d="M107.714887,10.5609639 L107.714887,13.6 L95.8593113,13.6 C95.3180377,13.6 94.776283,13.5975904 94.2345283,13.6033735 C92.8209623,13.6178313 91.5320094,13.9942169 91.5324906,15.6578313 C91.5334528,17.2549398 92.8753302,17.5585542 94.1455189,17.5889157 C97.1910849,17.6621687 100.241462,17.5739759 103.28366,17.7021687 C106.295547,17.8284337 108.505868,19.7489157 108.901358,22.3445783 C109.408472,25.6742169 107.480575,28.7416867 104.139594,28.933494 C98.9635755,29.2303614 93.7582075,29.0120482 88.4599811,29.0120482 L88.4599811,25.9821687 C89.2066981,25.9821687 89.920217,25.9826506 90.6337358,25.9821687 C94.5607358,25.979759 98.4886981,26.0081928 102.415217,25.9633735 C104.814623,25.9359036 106.112236,24.9893976 106.153613,23.3942169 C106.194991,21.813012 104.966179,20.8250602 102.497491,20.7291566 C99.2517736,20.6033735 95.9906604,20.7672289 92.754566,20.5440964 C89.2856038,20.3045783 87.279283,17.2631325 88.2694528,14.053494 C88.925717,11.9262651 90.5788868,10.6963855 92.6251415,10.6207229 C97.6096698,10.4371084 102.606226,10.5609639 107.714887,10.5609639" id="Fill-2" sketch:type="MSShapeGroup"></path>
                <path d="M0.0206886792,13.3619277 C7.03511321,8.97927711 13.9735189,4.64433735 21.1751038,0.144578313 C22.3009528,1.94120482 23.3353868,3.59228916 24.5305189,5.49975904 C17.5055094,9.89012048 10.5377547,14.2448193 3.36696226,18.726747" id="Fill-3" sketch:type="MSShapeGroup"></path>
                <path d="M69.2445283,28.9624096 L69.2445283,10.6048193 L85.1416132,10.6048193 L85.1416132,13.5551807 L72.4378019,13.5551807 L72.4378019,25.9060241 L85.1286226,25.9060241 L85.1286226,28.9624096 L69.2445283,28.9624096" id="Fill-4" sketch:type="MSShapeGroup"></path>
                <path d="M19.3626792,28.5180723 C16.7409906,24.306506 14.2482453,20.3021687 11.6077925,16.0612048 C13.9624528,14.5773494 16.218,13.1556627 18.6602264,11.6163855 C21.2280283,15.7354217 23.7573396,19.7922892 26.4401321,24.0959036 C24.1350283,25.5363855 21.8852547,26.9421687 19.3626792,28.5180723" id="Fill-5" sketch:type="MSShapeGroup"></path>
                <path d="M114.222198,26.0004819 L127.129047,26.0004819 L127.129047,28.9604819 L111.263717,28.9604819 L111.263717,10.5744578 L114.222198,10.5744578 L114.222198,26.0004819" id="Fill-6" sketch:type="MSShapeGroup"></path>
                <path d="M252.05066,21.3026506 L241.020708,21.3026506 L241.020708,18.2245783 L251.895736,18.2245783 L251.895736,10.5773494 L254.876349,10.5773494 L254.876349,28.9474699 L252.05066,28.9474699 L252.05066,21.3026506" id="Fill-7" sketch:type="MSShapeGroup"></path>
                <path d="M239.184708,28.9985542 L236.307538,28.9985542 L236.307538,10.5821687 L239.184708,10.5821687 L239.184708,28.9985542" id="Fill-8" sketch:type="MSShapeGroup"></path>
                <path d="M210.865274,10.6 L210.865274,13.4853012 L193.223604,13.4853012 L193.223604,10.6 L210.865274,10.6" id="Fill-9" sketch:type="MSShapeGroup"></path>
                <path d="M66.6709528,10.5484337 L66.6709528,13.4655422 L48.9585566,13.4655422 L48.9585566,10.5484337 L66.6709528,10.5484337" id="Fill-10" sketch:type="MSShapeGroup"></path>
                <path d="M59.2369811,29.0428916 L56.4493019,29.0428916 L56.4493019,15.3474699 L59.2369811,15.3474699 L59.2369811,29.0428916" id="Fill-11" sketch:type="MSShapeGroup"></path>
                <path d="M203.412057,28.9966265 L200.581557,28.9966265 L200.581557,15.2756627 L203.412057,15.2756627 L203.412057,28.9966265" id="Fill-12" sketch:type="MSShapeGroup"></path>
                <path d="M73.8614717,18.2159036 L84.2842358,18.2159036 L84.2842358,21.1253012 L73.9957075,21.1253012 C73.9538491,20.213494 73.9124717,19.3151807 73.8614717,18.2159036" id="Fill-13" sketch:type="MSShapeGroup"></path>
                <path d="M221.845189,25.9286747 C218.856396,25.8539759 216.762509,24.0640964 216.186594,21.3378313 C215.300349,17.1426506 217.948981,13.7113253 222.241642,13.6207229 C225.68366,13.5479518 229.129047,13.6038554 232.618698,13.6053012 L232.618698,10.4959036 C228.374151,10.493494 224.379792,10.3031325 220.405642,10.7392771 C215.376368,11.2915663 212.633434,15.2183133 212.981292,20.4033735 C213.314236,25.3628916 216.853925,28.9296386 221.719132,29.0679518 C225.006708,29.1614458 229.313802,29.0101205 232.618698,28.9951807 L232.618698,25.9503614 C228.935632,25.9513253 225.388245,26.0178313 221.845189,25.9286747" id="Fill-14" sketch:type="MSShapeGroup"></path>
                <path d="M175.481858,10.4963855 C173.491415,14.1628916 170.125896,20.3628916 168.076274,24.1407229 C167.585519,23.3060241 167.235255,22.7508434 166.923481,22.1744578 C165.249623,19.08 162.333481,13.5971084 160.67117,10.4963855 L156.633991,10.4963855 L159.528962,15.8501205 C159.706981,16.1754217 159.881632,16.4983133 160.053396,16.8192771 L161.358226,19.2327711 L160.290113,21.1628916 C159.933113,21.8448193 159.534255,22.5383133 159.113745,23.2877108 L158.667736,24.093012 C158.163991,23.2650602 157.799292,22.7209639 157.488962,22.1474699 C156.19183,19.746988 154.137396,15.9310843 152.503472,12.8910843 C152.030038,12.0110843 151.590283,11.1922892 151.216443,10.4963855 L147.289925,10.4963855 C150.464915,16.2727711 153.640387,22.3503614 156.868302,28.0539759 C157.927755,29.9257831 159.028104,29.8848193 160.195811,28.0679518 C161.24516,26.4342169 162.160755,24.7146988 163.271689,22.7980723 C164.192575,24.4424096 164.968642,25.8563855 165.77117,27.2559036 C167.409906,30.1118072 168.470802,30.1450602 170.074896,27.3228916 C172.98334,22.2048193 175.848962,17.0621687 178.722764,11.9238554 C178.828613,11.7349398 179.155302,11.1257831 179.48584,10.4963855 L175.481858,10.4963855" id="Fill-16" sketch:type="MSShapeGroup"></path>
                <path id="Fill-17" sketch:type="MSShapeGroup" d="M159.113745,23.2877108 C158.967,23.5493976 158.818811,23.8154217 158.667736,24.093012 L159.113745,23.2877108"></path>
                <path d="M185.252689,15.1089157 C186.395377,17.0250602 187.39517,18.700241 188.586453,20.6973494 L183.709217,20.6973494 L181.643236,23.7961446 L190.382038,23.7961446 C191.199,25.213012 191.952934,26.4207229 193.454066,28.9946988 L197.847764,28.9946988 C194.529877,23.373494 190.872311,17.3431325 187.509198,11.8761446 C186.308292,9.92433735 184.45016,9.87373494 183.233377,11.7889157 C179.748057,17.2751807 175.985604,23.3416867 172.554651,28.9946988 L176.507151,28.9946988 C178.524538,25.2457831 182.854726,19.0525301 185.252689,15.1089157" id="Fill-18" sketch:type="MSShapeGroup"></path>
                <path d="M141.524038,15.1089157 C142.667208,17.0250602 143.667,18.700241 144.858283,20.6973494 L139.981047,20.6973494 L137.915066,23.7961446 L146.653868,23.7961446 C147.47083,25.213012 148.224283,26.4207229 149.725415,28.9946988 L154.119594,28.9946988 C150.801708,23.373494 147.14366,17.3431325 143.780547,11.8761446 C142.580123,9.92433735 140.721509,9.87373494 139.504726,11.7889157 C136.019406,17.2751807 132.256953,23.3416867 128.826481,28.9946988 L132.7785,28.9946988 C134.795887,25.2457831 139.126075,19.0525301 141.524038,15.1089157" id="Fill-19" sketch:type="MSShapeGroup"></path>
            </g>
        </g>
    </g>
</svg>